<svg xmlns="http://www.w3.org/2000/svg" xmlns:xlink="http://www.w3.org/1999/xlink" viewBox="0,0,256,256" width="60px" height="60px" fill-rule="nonzero"><g fill="#bbdb9b" fill-rule="nonzero" stroke="none" stroke-width="1" stroke-linecap="butt" stroke-linejoin="miter" stroke-miterlimit="10" stroke-dasharray="" stroke-dashoffset="0" font-family="none" font-weight="none" font-size="none" text-anchor="none" style="mix-blend-mode: normal"><g transform="scale(8.53333,8.53333)"><path d="M27,15c0,6.627 -5.373,12 -12,12c-6.627,0 -12,-5.373 -12,-12c0,-6.627 5.373,-12 12,-12c6.627,0 12,5.373 12,12zM10.403,11.021c0.935,0 1.496,-0.561 1.496,-1.309c0,-0.748 -0.561,-1.309 -1.403,-1.309c-0.935,0 -1.496,0.561 -1.496,1.309c0,0.748 0.561,1.31 1.403,1.309zM9,20h3v-8h-3zM19.459,12c-1.412,0 -2.165,0.465 -2.541,1.116v-1.116h-2.918v8h2.917c0,0 0,-4.186 0,-4.372c0,-1.302 0.942,-1.488 1.224,-1.488c0.282,0 1.035,0.279 1.035,1.488v4.372h2.824v-4.372c0,-2.512 -1.129,-3.628 -2.541,-3.628z"></path></g></g></svg>