<?xml version="1.0" standalone="no"?><svg xmlns:xlink="http://www.w3.org/1999/xlink" xmlns="http://www.w3.org/2000/svg" viewBox="0 0 1000 642.8597020120075" preserveAspectRatio="xMaxYMax slice"><g transform="scale(1.0236619458789928)"><rect x="0" y="0" width="976.8888888888888" height="628" fill="#ffffff"/><rect x="0" y="0" width="69.78" height="69.78" fill="#8D99AE"/><path d="M 0 69.78 A 69.78 69.78 0 0 0 69.78 0 L 0 0L0 69.78" fill="#2B2D42"/><rect x="69.78" y="0" width="69.78" height="69.78" fill="#8D99AE"/><path d="M 69.78 0 A 69.78 69.78 0 0 0 139.56 69.78 L 139.56 0L69.78 0" fill="#EDF2F4"/><rect x="139.56" y="0" width="69.78" height="69.78" fill="#EDF2F4"/><polygon points="139.56,0 209.34,0 139.56,69.78" fill="#8D99AE"/><rect x="209.33" y="0" width="69.78" height="69.78" fill="#2B2D42"/><polygon points="209.33,0 279.11,0 279.11,69.78" fill="#8D99AE"/><rect x="279.1111111111111" y="0" width="69.77777777777777" height="69.77777777777777" fill="#ffffff"/><rect x="279.11" y="0" width="34.89" height="34.89" fill="#8D99AE"/><polygon points="314,0 314,34.89 279.11,34.89" fill="#2B2D42"/><rect x="314" y="0" width="34.89" height="34.89" fill="#2B2D42"/><polygon points="314,0 348.89,34.89 314,34.89" fill="#EDF2F4"/><rect x="279.11" y="34.89" width="34.89" height="34.89" fill="#EDF2F4"/><polygon points="279.11,34.89 314,34.89 279.11,69.78" fill="#8D99AE"/><rect x="314" y="34.89" width="34.89" height="34.89" fill="#2B2D42"/><polygon points="314,34.89 348.89,34.89 348.89,69.78" fill="#8D99AE"/><rect x="348.88888888888886" y="0" width="69.77777777777777" height="69.77777777777777" fill="#ffffff"/><rect x="348.89" y="0" width="34.89" height="34.89" fill="#EDF2F4"/><path d="M 348.89 34.89 A 34.89 34.89 0 0 0 383.78 0 L 348.89 0L348.89 34.89" fill="#EDF2F4"/><rect x="383.78" y="0" width="34.89" height="34.89" fill="#8D99AE"/><path d="M 383.78 0 A 34.89 34.89 0 0 0 418.66999999999996 34.89 L 418.66999999999996 0L383.78 0" fill="#8D99AE"/><rect x="348.89" y="34.89" width="34.89" height="34.89" fill="#EDF2F4"/><path d="M 348.89 34.89 A 34.89 34.89 0 0 1 383.78 69.78 L 348.89 69.78L348.89 34.89" fill="#2B2D42"/><rect x="383.78" y="34.89" width="34.89" height="34.89" fill="#EDF2F4"/><path d="M 383.78 69.78 A 34.89 34.89 0 0 1  418.66999999999996 34.89 L 418.66999999999996 69.78L383.78 69.78" fill="#EDF2F4"/><rect x="418.66666666666663" y="0" width="69.77777777777777" height="69.77777777777777" fill="#ffffff"/><rect x="418.67" y="0" width="34.89" height="34.89" fill="#8D99AE"/><polygon points="453.56,0 453.56,34.89 418.67,34.89" fill="#8D99AE"/><rect x="453.56" y="0" width="34.89" height="34.89" fill="#8D99AE"/><polygon points="453.56,0 488.45,34.89 453.56,34.89" fill="#2B2D42"/><rect x="418.67" y="34.89" width="34.89" height="34.89" fill="#8D99AE"/><polygon points="418.67,34.89 453.56,34.89 418.67,69.78" fill="#EDF2F4"/><rect x="453.56" y="34.89" width="34.89" height="34.89" fill="#8D99AE"/><polygon points="453.56,34.89 488.45,34.89 488.45,69.78" fill="#8D99AE"/><rect x="488.4444444444444" y="0" width="69.77777777777777" height="69.77777777777777" fill="#ffffff"/><rect x="488.44" y="0" width="34.89" height="34.89" fill="#8D99AE"/><path d="M 488.44 34.89 A 34.89 34.89 0 0 1  523.33 0 L 523.33 34.89L488.44 34.89" fill="#2B2D42"/><rect x="523.33" y="0" width="34.89" height="34.89" fill="#EDF2F4"/><path d="M 523.33 0 A 34.89 34.89 0 0 1 558.22 34.89 L 523.33 34.89L523.33 0" fill="#EDF2F4"/><rect x="488.44" y="34.89" width="34.89" height="34.89" fill="#EDF2F4"/><path d="M 488.44 34.89 A 34.89 34.89 0 0 0 523.33 69.78 L 523.33 34.89L488.44 34.89" fill="#8D99AE"/><rect x="523.33" y="34.89" width="34.89" height="34.89" fill="#2B2D42"/><path d="M 523.33 69.78 A 34.89 34.89 0 0 0 558.22 34.89 L 523.33 34.89L523.33 69.78" fill="#2B2D42"/><rect x="558.2222222222222" y="0" width="69.77777777777777" height="69.77777777777777" fill="#ffffff"/><rect x="558.22" y="0" width="34.89" height="34.89" fill="#2B2D42"/><path d="M 558.22 34.89 A 34.89 34.89 0 0 1  593.11 0 L 593.11 34.89L558.22 34.89" fill="#8D99AE"/><rect x="593.11" y="0" width="34.89" height="34.89" fill="#2B2D42"/><path d="M 593.11 0 A 34.89 34.89 0 0 1 628 34.89 L 593.11 34.89L593.11 0" fill="#8D99AE"/><rect x="558.22" y="34.89" width="34.89" height="34.89" fill="#EDF2F4"/><path d="M 558.22 34.89 A 34.89 34.89 0 0 0 593.11 69.78 L 593.11 34.89L558.22 34.89" fill="#8D99AE"/><rect x="593.11" y="34.89" width="34.89" height="34.89" fill="#8D99AE"/><path d="M 593.11 69.78 A 34.89 34.89 0 0 0 628 34.89 L 593.11 34.89L593.11 69.78" fill="#2B2D42"/><rect x="628" y="0" width="69.78" height="69.78" fill="#EDF2F4"/><polygon points="628,0 697.78,69.78 628,69.78" fill="#EDF2F4"/><rect x="697.78" y="0" width="69.78" height="69.78" fill="#2B2D42"/><rect x="697.78" y="0" width="69.78" height="69.78" fill="#8D99AE"/><rect x="767.56" y="0" width="69.78" height="69.78" fill="#8D99AE"/><polygon points="837.3399999999999,0 837.3399999999999,69.78 767.56,69.78" fill="#8D99AE"/><rect x="837.33" y="0" width="69.78" height="69.78" fill="#2B2D42"/><polygon points="837.33,0 907.11,69.78 837.33,69.78" fill="#2B2D42"/><rect x="907.1111111111111" y="0" width="69.77777777777777" height="69.77777777777777" fill="#ffffff"/><rect x="907.11" y="0" width="34.89" height="34.89" fill="#EDF2F4"/><circle cx="924.5550000000001" cy="17.445" r="17.445" fill="#EDF2F4"/><rect x="942" y="0" width="34.89" height="34.89" fill="#8D99AE"/><rect x="942" y="0" width="34.89" height="34.89" fill="#2B2D42"/><rect x="907.11" y="34.89" width="34.89" height="34.89" fill="#EDF2F4"/><circle cx="924.5550000000001" cy="52.335" r="17.445" fill="#8D99AE"/><rect x="942" y="34.89" width="34.89" height="34.89" fill="#8D99AE"/><rect x="942" y="34.89" width="34.89" height="34.89" fill="#EDF2F4"/><rect x="0" y="69.78" width="69.78" height="69.78" fill="#8D99AE"/><polygon points="0,69.78 69.78,69.78 0,139.56" fill="#EDF2F4"/><rect x="69.77777777777777" y="69.77777777777777" width="69.77777777777777" height="69.77777777777777" fill="#ffffff"/><rect x="69.78" y="69.78" width="34.89" height="34.89" fill="#8D99AE"/><polygon points="104.67,69.78 104.67,104.67 69.78,104.67" fill="#EDF2F4"/><rect x="104.67" y="69.78" width="34.89" height="34.89" fill="#2B2D42"/><polygon points="104.67,69.78 139.56,104.67 104.67,104.67" fill="#EDF2F4"/><rect x="69.78" y="104.67" width="34.89" height="34.89" fill="#2B2D42"/><polygon points="69.78,104.67 104.67,104.67 69.78,139.56" fill="#EDF2F4"/><rect x="104.67" y="104.67" width="34.89" height="34.89" fill="#2B2D42"/><polygon points="104.67,104.67 139.56,104.67 139.56,139.56" fill="#8D99AE"/><rect x="139.55555555555554" y="69.77777777777777" width="69.77777777777777" height="69.77777777777777" fill="#ffffff"/><rect x="139.56" y="69.78" width="34.89" height="34.89" fill="#8D99AE"/><polygon points="174.45,69.78 174.45,104.67 139.56,104.67" fill="#8D99AE"/><rect x="174.44" y="69.78" width="34.89" height="34.89" fill="#8D99AE"/><polygon points="174.44,69.78 209.32999999999998,69.78 174.44,104.67" fill="#8D99AE"/><rect x="139.56" y="104.67" width="34.89" height="34.89" fill="#EDF2F4"/><polygon points="139.56,104.67 174.45,104.67 174.45,139.56" fill="#2B2D42"/><rect x="174.44" y="104.67" width="34.89" height="34.89" fill="#8D99AE"/><polygon points="174.44,104.67 209.32999999999998,139.56 174.44,139.56" fill="#2B2D42"/><rect x="209.33" y="69.78" width="69.78" height="69.78" fill="#8D99AE"/><path d="M 209.33 139.56 A 69.78 69.78 0 0 0 279.11 69.78 L 209.33 69.78L209.33 139.56" fill="#8D99AE"/><rect x="279.1111111111111" y="69.77777777777777" width="69.77777777777777" height="69.77777777777777" fill="#ffffff"/><rect x="279.11" y="69.78" width="34.89" height="34.89" fill="#EDF2F4"/><circle cx="296.555" cy="87.225" r="17.445" fill="#EDF2F4"/><rect x="314" y="69.78" width="34.89" height="34.89" fill="#EDF2F4"/><rect x="314" y="69.78" width="34.89" height="34.89" fill="#8D99AE"/><rect x="279.11" y="104.67" width="34.89" height="34.89" fill="#8D99AE"/><circle cx="296.555" cy="122.11500000000001" r="17.445" fill="#2B2D42"/><rect x="314" y="104.67" width="34.89" height="34.89" fill="#EDF2F4"/><rect x="314" y="104.67" width="34.89" height="34.89" fill="#EDF2F4"/><rect x="348.88888888888886" y="69.77777777777777" width="69.77777777777777" height="69.77777777777777" fill="#ffffff"/><rect x="348.89" y="69.78" width="34.89" height="34.89" fill="#EDF2F4"/><circle cx="366.335" cy="87.225" r="17.445" fill="#EDF2F4"/><rect x="383.78" y="69.78" width="34.89" height="34.89" fill="#EDF2F4"/><rect x="383.78" y="69.78" width="34.89" height="34.89" fill="#8D99AE"/><rect x="348.89" y="104.67" width="34.89" height="34.89" fill="#2B2D42"/><circle cx="366.335" cy="122.11500000000001" r="17.445" fill="#2B2D42"/><rect x="383.78" y="104.67" width="34.89" height="34.89" fill="#2B2D42"/><rect x="383.78" y="104.67" width="34.89" height="34.89" fill="#EDF2F4"/><rect x="418.67" y="69.78" width="69.78" height="69.78" fill="#EDF2F4"/><polygon points="418.67,69.78 488.45000000000005,69.78 488.45000000000005,139.56" fill="#2B2D42"/><rect x="488.4444444444444" y="69.77777777777777" width="69.77777777777777" height="69.77777777777777" fill="#ffffff"/><rect x="488.44" y="69.78" width="34.89" height="34.89" fill="#2B2D42"/><polygon points="523.33,69.78 523.33,104.67 488.44,104.67" fill="#EDF2F4"/><rect x="523.33" y="69.78" width="34.89" height="34.89" fill="#2B2D42"/><polygon points="523.33,69.78 558.22,104.67 523.33,104.67" fill="#EDF2F4"/><rect x="488.44" y="104.67" width="34.89" height="34.89" fill="#8D99AE"/><polygon points="488.44,104.67 523.33,104.67 523.33,139.56" fill="#8D99AE"/><rect x="523.33" y="104.67" width="34.89" height="34.89" fill="#8D99AE"/><polygon points="523.33,104.67 558.22,104.67 523.33,139.56" fill="#EDF2F4"/><rect x="558.2222222222222" y="69.77777777777777" width="69.77777777777777" height="69.77777777777777" fill="#ffffff"/><rect x="558.22" y="69.78" width="34.89" height="34.89" fill="#EDF2F4"/><path d="M 558.22 104.67 A 34.89 34.89 0 0 0 593.11 69.78 L 558.22 69.78L558.22 104.67" fill="#EDF2F4"/><rect x="593.11" y="69.78" width="34.89" height="34.89" fill="#EDF2F4"/><path d="M 593.11 69.78 A 34.89 34.89 0 0 0 628 104.67 L 628 69.78L593.11 69.78" fill="#2B2D42"/><rect x="558.22" y="104.67" width="34.89" height="34.89" fill="#8D99AE"/><path d="M 558.22 104.67 A 34.89 34.89 0 0 1 593.11 139.56 L 558.22 139.56L558.22 104.67" fill="#8D99AE"/><rect x="593.11" y="104.67" width="34.89" height="34.89" fill="#EDF2F4"/><path d="M 593.11 139.56 A 34.89 34.89 0 0 1  628 104.67 L 628 139.56L593.11 139.56" fill="#2B2D42"/><rect x="628" y="69.77777777777777" width="69.77777777777777" height="69.77777777777777" fill="#ffffff"/><rect x="628" y="69.78" width="34.89" height="34.89" fill="#8D99AE"/><path d="M 628 69.78 A 34.89 34.89 0 0 0 662.89 104.67 L 662.89 69.78L628 69.78" fill="#EDF2F4"/><rect x="662.89" y="69.78" width="34.89" height="34.89" fill="#2B2D42"/><path d="M 662.89 104.67 A 34.89 34.89 0 0 0 697.78 69.78 L 662.89 69.78L662.89 104.67" fill="#8D99AE"/><rect x="628" y="104.67" width="34.89" height="34.89" fill="#EDF2F4"/><path d="M 628 139.56 A 34.89 34.89 0 0 1  662.89 104.67 L 662.89 139.56L628 139.56" fill="#2B2D42"/><rect x="662.89" y="104.67" width="34.89" height="34.89" fill="#EDF2F4"/><path d="M 662.89 104.67 A 34.89 34.89 0 0 1 697.78 139.56 L 662.89 139.56L662.89 104.67" fill="#2B2D42"/><rect x="697.78" y="69.78" width="69.78" height="69.78" fill="#2B2D42"/><rect x="697.78" y="69.78" width="69.78" height="69.78" fill="#2B2D42"/><rect x="767.56" y="69.78" width="69.78" height="69.78" fill="#8D99AE"/><path d="M 767.56 69.78 A 69.78 69.78 0 0 1 837.3399999999999 139.56 L 767.56 139.56L767.56 69.78" fill="#2B2D42"/><rect x="837.33" y="69.78" width="69.78" height="69.78" fill="#EDF2F4"/><rect x="837.33" y="69.78" width="69.78" height="69.78" fill="#8D99AE"/><rect x="907.1111111111111" y="69.77777777777777" width="69.77777777777777" height="69.77777777777777" fill="#ffffff"/><rect x="907.11" y="69.78" width="34.89" height="34.89" fill="#EDF2F4"/><polygon points="942,69.78 942,104.67 907.11,104.67" fill="#8D99AE"/><rect x="942" y="69.78" width="34.89" height="34.89" fill="#2B2D42"/><polygon points="942,69.78 976.89,69.78 942,104.67" fill="#8D99AE"/><rect x="907.11" y="104.67" width="34.89" height="34.89" fill="#EDF2F4"/><polygon points="907.11,104.67 942,104.67 942,139.56" fill="#EDF2F4"/><rect x="942" y="104.67" width="34.89" height="34.89" fill="#EDF2F4"/><polygon points="942,104.67 976.89,139.56 942,139.56" fill="#EDF2F4"/><rect x="0" y="139.55555555555554" width="69.77777777777777" height="69.77777777777777" fill="#ffffff"/><rect x="0" y="139.56" width="34.89" height="34.89" fill="#8D99AE"/><polygon points="34.89,139.56 34.89,174.45 0,174.45" fill="#EDF2F4"/><rect x="34.89" y="139.56" width="34.89" height="34.89" fill="#EDF2F4"/><polygon points="34.89,139.56 69.78,174.45 34.89,174.45" fill="#8D99AE"/><rect x="0" y="174.44" width="34.89" height="34.89" fill="#EDF2F4"/><polygon points="0,174.44 34.89,174.44 34.89,209.32999999999998" fill="#EDF2F4"/><rect x="34.89" y="174.44" width="34.89" height="34.89" fill="#EDF2F4"/><polygon points="34.89,174.44 69.78,174.44 34.89,209.32999999999998" fill="#8D99AE"/><rect x="69.78" y="139.56" width="69.78" height="69.78" fill="#8D99AE"/><polygon points="69.78,139.56 139.56,139.56 69.78,209.34" fill="#2B2D42"/><rect x="139.56" y="139.56" width="69.78" height="69.78" fill="#EDF2F4"/><path d="M 139.56 139.56 A 69.78 69.78 0 0 1 209.34 209.34 L 139.56 209.34L139.56 139.56" fill="#2B2D42"/><rect x="209.33" y="139.56" width="69.78" height="69.78" fill="#8D99AE"/><rect x="209.33" y="139.56" width="69.78" height="69.78" fill="#EDF2F4"/><rect x="279.11" y="139.56" width="69.78" height="69.78" fill="#8D99AE"/><path d="M 279.11 139.56 A 69.78 69.78 0 0 0 348.89 209.34 L 348.89 139.56L279.11 139.56" fill="#EDF2F4"/><rect x="348.89" y="139.56" width="69.78" height="69.78" fill="#EDF2F4"/><rect x="348.89" y="139.56" width="69.78" height="69.78" fill="#8D99AE"/><rect x="418.66666666666663" y="139.55555555555554" width="69.77777777777777" height="69.77777777777777" fill="#ffffff"/><rect x="418.67" y="139.56" width="34.89" height="34.89" fill="#EDF2F4"/><path d="M 418.67 174.45 A 34.89 34.89 0 0 1 453.56 139.56 L 453.56 148.2825 A 26.1675 26.1675 0 0 0 427.39250000000004 174.45" fill="#2B2D42"/><rect x="453.56" y="139.56" width="34.89" height="34.89" fill="#EDF2F4"/><path d="M 453.56 139.56 A 34.89 34.89 0 0 1 488.45 174.45 L 479.7275 174.45 A 26.1675 26.1675 0 0 0 453.56 148.2825" fill="#8D99AE"/><rect x="418.67" y="174.44" width="34.89" height="34.89" fill="#EDF2F4"/><path d="M 418.67 174.44 A 34.89 34.89 0 0 0 453.56 209.32999999999998 L 453.56 200.6075 A 26.1675 26.1675 0 0 1 427.39250000000004 174.44" fill="#EDF2F4"/><rect x="453.56" y="174.44" width="34.89" height="34.89" fill="#EDF2F4"/><path d="M 453.56 209.32999999999998 A 34.89 34.89 0 0 0 488.45 174.44 L 479.7275 174.44 A 26.1675 26.1675 0 0 1 453.56 200.6075" fill="#2B2D42"/><rect x="488.4444444444444" y="139.55555555555554" width="69.77777777777777" height="69.77777777777777" fill="#ffffff"/><rect x="488.44" y="139.56" width="34.89" height="34.89" fill="#8D99AE"/><polygon points="523.33,139.56 523.33,174.45 488.44,174.45" fill="#8D99AE"/><rect x="523.33" y="139.56" width="34.89" height="34.89" fill="#EDF2F4"/><polygon points="523.33,139.56 558.22,174.45 523.33,174.45" fill="#2B2D42"/><rect x="488.44" y="174.44" width="34.89" height="34.89" fill="#8D99AE"/><polygon points="488.44,174.44 523.33,174.44 488.44,209.32999999999998" fill="#8D99AE"/><rect x="523.33" y="174.44" width="34.89" height="34.89" fill="#2B2D42"/><polygon points="523.33,174.44 558.22,174.44 558.22,209.32999999999998" fill="#2B2D42"/><rect x="558.22" y="139.56" width="69.78" height="69.78" fill="#8D99AE"/><path d="M 558.22 209.34 A 69.78 69.78 0 0 1  628 139.56 L 628 209.34L558.22 209.34" fill="#EDF2F4"/><rect x="628" y="139.56" width="69.78" height="69.78" fill="#8D99AE"/><polygon points="628,139.56 697.78,139.56 628,209.34" fill="#2B2D42"/><rect x="697.7777777777777" y="139.55555555555554" width="69.77777777777777" height="69.77777777777777" fill="#ffffff"/><rect x="697.78" y="139.56" width="34.89" height="34.89" fill="#EDF2F4"/><path d="M 697.78 139.56 A 34.89 34.89 0 0 0 732.67 174.45 L 732.67 139.56L697.78 139.56" fill="#2B2D42"/><rect x="732.67" y="139.56" width="34.89" height="34.89" fill="#2B2D42"/><path d="M 732.67 174.45 A 34.89 34.89 0 0 0 767.56 139.56 L 732.67 139.56L732.67 174.45" fill="#8D99AE"/><rect x="697.78" y="174.44" width="34.89" height="34.89" fill="#EDF2F4"/><path d="M 697.78 209.32999999999998 A 34.89 34.89 0 0 1  732.67 174.44 L 732.67 209.32999999999998L697.78 209.32999999999998" fill="#2B2D42"/><rect x="732.67" y="174.44" width="34.89" height="34.89" fill="#8D99AE"/><path d="M 732.67 174.44 A 34.89 34.89 0 0 1 767.56 209.32999999999998 L 732.67 209.32999999999998L732.67 174.44" fill="#8D99AE"/><rect x="767.5555555555554" y="139.55555555555554" width="69.77777777777777" height="69.77777777777777" fill="#ffffff"/><rect x="767.56" y="139.56" width="34.89" height="34.89" fill="#8D99AE"/><circle cx="785.005" cy="157.005" r="17.445" fill="#8D99AE"/><rect x="802.44" y="139.56" width="34.89" height="34.89" fill="#EDF2F4"/><rect x="802.44" y="139.56" width="34.89" height="34.89" fill="#2B2D42"/><rect x="767.56" y="174.44" width="34.89" height="34.89" fill="#2B2D42"/><circle cx="785.005" cy="191.885" r="17.445" fill="#8D99AE"/><rect x="802.44" y="174.44" width="34.89" height="34.89" fill="#8D99AE"/><rect x="802.44" y="174.44" width="34.89" height="34.89" fill="#2B2D42"/><rect x="837.3333333333333" y="139.55555555555554" width="69.77777777777777" height="69.77777777777777" fill="#ffffff"/><rect x="837.33" y="139.56" width="34.89" height="34.89" fill="#EDF2F4"/><path d="M 837.33 139.56 A 34.89 34.89 0 0 1 872.22 174.45 L 837.33 174.45L837.33 139.56" fill="#8D99AE"/><rect x="872.22" y="139.56" width="34.89" height="34.89" fill="#2B2D42"/><path d="M 872.22 174.45 A 34.89 34.89 0 0 1  907.11 139.56 L 907.11 174.45L872.22 174.45" fill="#EDF2F4"/><rect x="837.33" y="174.44" width="34.89" height="34.89" fill="#EDF2F4"/><path d="M 837.33 209.32999999999998 A 34.89 34.89 0 0 0 872.22 174.44 L 837.33 174.44L837.33 209.32999999999998" fill="#2B2D42"/><rect x="872.22" y="174.44" width="34.89" height="34.89" fill="#8D99AE"/><path d="M 872.22 174.44 A 34.89 34.89 0 0 0 907.11 209.32999999999998 L 907.11 174.44L872.22 174.44" fill="#8D99AE"/><rect x="907.11" y="139.56" width="69.78" height="69.78" fill="#EDF2F4"/><path d="M 907.11 139.56 A 69.78 69.78 0 0 1  976.89 209.34 L 907.11 139.56 A 69.78 69.78 0 0 0 976.89 209.34" fill="#8D99AE"/><rect x="0" y="209.33" width="69.78" height="69.78" fill="#2B2D42"/><path d="M 0 209.33 A 69.78 69.78 0 0 0 69.78 279.11 L 69.78 209.33L0 209.33" fill="#8D99AE"/><rect x="69.77777777777777" y="209.33333333333331" width="69.77777777777777" height="69.77777777777777" fill="#ffffff"/><rect x="69.78" y="209.33" width="34.89" height="34.89" fill="#EDF2F4"/><circle cx="87.225" cy="226.775" r="17.445" fill="#EDF2F4"/><rect x="104.67" y="209.33" width="34.89" height="34.89" fill="#2B2D42"/><rect x="104.67" y="209.33" width="34.89" height="34.89" fill="#EDF2F4"/><rect x="69.78" y="244.22" width="34.89" height="34.89" fill="#8D99AE"/><circle cx="87.225" cy="261.665" r="17.445" fill="#2B2D42"/><rect x="104.67" y="244.22" width="34.89" height="34.89" fill="#EDF2F4"/><rect x="104.67" y="244.22" width="34.89" height="34.89" fill="#EDF2F4"/><rect x="139.55555555555554" y="209.33333333333331" width="69.77777777777777" height="69.77777777777777" fill="#ffffff"/><rect x="139.56" y="209.33" width="34.89" height="34.89" fill="#8D99AE"/><polygon points="174.45,209.33 174.45,244.22000000000003 139.56,244.22000000000003" fill="#8D99AE"/><rect x="174.44" y="209.33" width="34.89" height="34.89" fill="#8D99AE"/><polygon points="174.44,209.33 209.32999999999998,244.22000000000003 174.44,244.22000000000003" fill="#EDF2F4"/><rect x="139.56" y="244.22" width="34.89" height="34.89" fill="#8D99AE"/><polygon points="139.56,244.22 174.45,244.22 139.56,279.11" fill="#8D99AE"/><rect x="174.44" y="244.22" width="34.89" height="34.89" fill="#8D99AE"/><polygon points="174.44,244.22 209.32999999999998,244.22 209.32999999999998,279.11" fill="#8D99AE"/><rect x="209.33" y="209.33" width="69.78" height="69.78" fill="#EDF2F4"/><polygon points="209.33,209.33 279.11,209.33 209.33,279.11" fill="#8D99AE"/><rect x="279.1111111111111" y="209.33333333333331" width="69.77777777777777" height="69.77777777777777" fill="#ffffff"/><rect x="279.11" y="209.33" width="34.89" height="34.89" fill="#8D99AE"/><polygon points="314,209.33 314,244.22000000000003 279.11,244.22000000000003" fill="#8D99AE"/><rect x="314" y="209.33" width="34.89" height="34.89" fill="#EDF2F4"/><polygon points="314,209.33 348.89,244.22000000000003 314,244.22000000000003" fill="#8D99AE"/><rect x="279.11" y="244.22" width="34.89" height="34.89" fill="#2B2D42"/><polygon points="279.11,244.22 314,244.22 314,279.11" fill="#2B2D42"/><rect x="314" y="244.22" width="34.89" height="34.89" fill="#8D99AE"/><polygon points="314,244.22 348.89,244.22 314,279.11" fill="#EDF2F4"/><rect x="348.89" y="209.33" width="69.78" height="69.78" fill="#2B2D42"/><path d="M 348.89 209.33 A 69.78 69.78 0 0 0 418.66999999999996 279.11 L 418.66999999999996 209.33L348.89 209.33" fill="#8D99AE"/><rect x="418.66666666666663" y="209.33333333333331" width="69.77777777777777" height="69.77777777777777" fill="#ffffff"/><rect x="418.67" y="209.33" width="34.89" height="34.89" fill="#2B2D42"/><path d="M 418.67 244.22000000000003 A 34.89 34.89 0 0 1 453.56 209.33 L 453.56 218.0525 A 26.1675 26.1675 0 0 0 427.39250000000004 244.22000000000003" fill="#EDF2F4"/><rect x="453.56" y="209.33" width="34.89" height="34.89" fill="#2B2D42"/><path d="M 453.56 209.33 A 34.89 34.89 0 0 1 488.45 244.22000000000003 L 479.7275 244.22000000000003 A 26.1675 26.1675 0 0 0 453.56 218.0525" fill="#2B2D42"/><rect x="418.67" y="244.22" width="34.89" height="34.89" fill="#2B2D42"/><path d="M 418.67 244.22 A 34.89 34.89 0 0 0 453.56 279.11 L 453.56 270.3875 A 26.1675 26.1675 0 0 1 427.39250000000004 244.22" fill="#EDF2F4"/><rect x="453.56" y="244.22" width="34.89" height="34.89" fill="#EDF2F4"/><path d="M 453.56 279.11 A 34.89 34.89 0 0 0 488.45 244.22 L 479.7275 244.22 A 26.1675 26.1675 0 0 1 453.56 270.3875" fill="#8D99AE"/><rect x="488.44" y="209.33" width="69.78" height="69.78" fill="#2B2D42"/><rect x="488.44" y="209.33" width="69.78" height="69.78" fill="#EDF2F4"/><rect x="558.22" y="209.33" width="69.78" height="69.78" fill="#EDF2F4"/><path d="M 558.22 209.33 A 69.78 69.78 0 0 0 628 279.11 L 628 209.33L558.22 209.33" fill="#8D99AE"/><rect x="628" y="209.33333333333331" width="69.77777777777777" height="69.77777777777777" fill="#ffffff"/><rect x="628" y="209.33" width="34.89" height="34.89" fill="#8D99AE"/><polygon points="662.89,209.33 662.89,244.22000000000003 628,244.22000000000003" fill="#2B2D42"/><rect x="662.89" y="209.33" width="34.89" height="34.89" fill="#2B2D42"/><polygon points="662.89,209.33 697.78,244.22000000000003 662.89,244.22000000000003" fill="#2B2D42"/><rect x="628" y="244.22" width="34.89" height="34.89" fill="#2B2D42"/><polygon points="628,244.22 662.89,244.22 628,279.11" fill="#2B2D42"/><rect x="662.89" y="244.22" width="34.89" height="34.89" fill="#2B2D42"/><polygon points="662.89,244.22 697.78,244.22 697.78,279.11" fill="#2B2D42"/><rect x="697.78" y="209.33" width="69.78" height="69.78" fill="#2B2D42"/><polygon points="697.78,209.33 767.56,279.11 697.78,279.11" fill="#8D99AE"/><rect x="767.5555555555554" y="209.33333333333331" width="69.77777777777777" height="69.77777777777777" fill="#ffffff"/><rect x="767.56" y="209.33" width="34.89" height="34.89" fill="#8D99AE"/><polygon points="802.4499999999999,209.33 802.4499999999999,244.22000000000003 767.56,244.22000000000003" fill="#EDF2F4"/><rect x="802.44" y="209.33" width="34.89" height="34.89" fill="#2B2D42"/><polygon points="802.44,209.33 837.33,209.33 802.44,244.22000000000003" fill="#EDF2F4"/><rect x="767.56" y="244.22" width="34.89" height="34.89" fill="#2B2D42"/><polygon points="767.56,244.22 802.4499999999999,244.22 802.4499999999999,279.11" fill="#8D99AE"/><rect x="802.44" y="244.22" width="34.89" height="34.89" fill="#8D99AE"/><polygon points="802.44,244.22 837.33,279.11 802.44,279.11" fill="#EDF2F4"/><rect x="837.3333333333333" y="209.33333333333331" width="69.77777777777777" height="69.77777777777777" fill="#ffffff"/><rect x="837.33" y="209.33" width="34.89" height="34.89" fill="#8D99AE"/><path d="M 837.33 209.33 A 34.89 34.89 0 0 0 872.22 244.22000000000003 L 872.22 209.33L837.33 209.33" fill="#2B2D42"/><rect x="872.22" y="209.33" width="34.89" height="34.89" fill="#EDF2F4"/><path d="M 872.22 244.22000000000003 A 34.89 34.89 0 0 0 907.11 209.33 L 872.22 209.33L872.22 244.22000000000003" fill="#EDF2F4"/><rect x="837.33" y="244.22" width="34.89" height="34.89" fill="#2B2D42"/><path d="M 837.33 279.11 A 34.89 34.89 0 0 1  872.22 244.22 L 872.22 279.11L837.33 279.11" fill="#8D99AE"/><rect x="872.22" y="244.22" width="34.89" height="34.89" fill="#8D99AE"/><path d="M 872.22 244.22 A 34.89 34.89 0 0 1 907.11 279.11 L 872.22 279.11L872.22 244.22" fill="#2B2D42"/><rect x="907.1111111111111" y="209.33333333333331" width="69.77777777777777" height="69.77777777777777" fill="#ffffff"/><rect x="907.11" y="209.33" width="34.89" height="34.89" fill="#EDF2F4"/><path d="M 907.11 244.22000000000003 A 34.89 34.89 0 0 1 942 209.33 L 942 218.0525 A 26.1675 26.1675 0 0 0 915.8325 244.22000000000003" fill="#8D99AE"/><rect x="942" y="209.33" width="34.89" height="34.89" fill="#8D99AE"/><path d="M 942 209.33 A 34.89 34.89 0 0 1 976.89 244.22000000000003 L 968.1675 244.22000000000003 A 26.1675 26.1675 0 0 0 942 218.0525" fill="#2B2D42"/><rect x="907.11" y="244.22" width="34.89" height="34.89" fill="#EDF2F4"/><path d="M 907.11 244.22 A 34.89 34.89 0 0 0 942 279.11 L 942 270.3875 A 26.1675 26.1675 0 0 1 915.8325 244.22" fill="#EDF2F4"/><rect x="942" y="244.22" width="34.89" height="34.89" fill="#2B2D42"/><path d="M 942 279.11 A 34.89 34.89 0 0 0 976.89 244.22 L 968.1675 244.22 A 26.1675 26.1675 0 0 1 942 270.3875" fill="#2B2D42"/><rect x="0" y="279.11" width="69.78" height="69.78" fill="#EDF2F4"/><polygon points="0,279.11 69.78,279.11 69.78,348.89" fill="#2B2D42"/><rect x="69.78" y="279.11" width="69.78" height="69.78" fill="#EDF2F4"/><polygon points="69.78,279.11 139.56,279.11 139.56,348.89" fill="#EDF2F4"/><rect x="139.56" y="279.11" width="69.78" height="69.78" fill="#2B2D42"/><path d="M 139.56 279.11 A 69.78 69.78 0 0 1 209.34 348.89 L 139.56 348.89L139.56 279.11" fill="#2B2D42"/><rect x="209.33333333333331" y="279.1111111111111" width="69.77777777777777" height="69.77777777777777" fill="#ffffff"/><rect x="209.33" y="279.11" width="34.89" height="34.89" fill="#2B2D42"/><path d="M 209.33 314 A 34.89 34.89 0 0 0 244.22000000000003 279.11 L 209.33 279.11L209.33 314" fill="#8D99AE"/><rect x="244.22" y="279.11" width="34.89" height="34.89" fill="#EDF2F4"/><path d="M 244.22 279.11 A 34.89 34.89 0 0 0 279.11 314 L 279.11 279.11L244.22 279.11" fill="#EDF2F4"/><rect x="209.33" y="314" width="34.89" height="34.89" fill="#2B2D42"/><path d="M 209.33 314 A 34.89 34.89 0 0 1 244.22000000000003 348.89 L 209.33 348.89L209.33 314" fill="#EDF2F4"/><rect x="244.22" y="314" width="34.89" height="34.89" fill="#EDF2F4"/><path d="M 244.22 348.89 A 34.89 34.89 0 0 1  279.11 314 L 279.11 348.89L244.22 348.89" fill="#EDF2F4"/><rect x="279.1111111111111" y="279.1111111111111" width="69.77777777777777" height="69.77777777777777" fill="#ffffff"/><rect x="279.11" y="279.11" width="34.89" height="34.89" fill="#2B2D42"/><polygon points="314,279.11 314,314 279.11,314" fill="#EDF2F4"/><rect x="314" y="279.11" width="34.89" height="34.89" fill="#2B2D42"/><polygon points="314,279.11 348.89,279.11 314,314" fill="#8D99AE"/><rect x="279.11" y="314" width="34.89" height="34.89" fill="#EDF2F4"/><polygon points="279.11,314 314,314 314,348.89" fill="#8D99AE"/><rect x="314" y="314" width="34.89" height="34.89" fill="#8D99AE"/><polygon points="314,314 348.89,348.89 314,348.89" fill="#2B2D42"/><rect x="348.88888888888886" y="279.1111111111111" width="69.77777777777777" height="69.77777777777777" fill="#ffffff"/><rect x="348.89" y="279.11" width="34.89" height="34.89" fill="#8D99AE"/><polygon points="383.78,279.11 383.78,314 348.89,314" fill="#EDF2F4"/><rect x="383.78" y="279.11" width="34.89" height="34.89" fill="#2B2D42"/><polygon points="383.78,279.11 418.66999999999996,279.11 383.78,314" fill="#8D99AE"/><rect x="348.89" y="314" width="34.89" height="34.89" fill="#2B2D42"/><polygon points="348.89,314 383.78,314 383.78,348.89" fill="#2B2D42"/><rect x="383.78" y="314" width="34.89" height="34.89" fill="#2B2D42"/><polygon points="383.78,314 418.66999999999996,348.89 383.78,348.89" fill="#EDF2F4"/><rect x="418.67" y="279.11" width="69.78" height="69.78" fill="#2B2D42"/><polygon points="418.67,279.11 488.45000000000005,348.89 418.67,348.89" fill="#8D99AE"/><rect x="488.44" y="279.11" width="69.78" height="69.78" fill="#EDF2F4"/><rect x="488.44" y="279.11" width="69.78" height="69.78" fill="#8D99AE"/><rect x="558.2222222222222" y="279.1111111111111" width="69.77777777777777" height="69.77777777777777" fill="#ffffff"/><rect x="558.22" y="279.11" width="34.89" height="34.89" fill="#EDF2F4"/><path d="M 558.22 279.11 A 34.89 34.89 0 0 0 593.11 314 L 593.11 279.11L558.22 279.11" fill="#EDF2F4"/><rect x="593.11" y="279.11" width="34.89" height="34.89" fill="#EDF2F4"/><path d="M 593.11 314 A 34.89 34.89 0 0 0 628 279.11 L 593.11 279.11L593.11 314" fill="#EDF2F4"/><rect x="558.22" y="314" width="34.89" height="34.89" fill="#EDF2F4"/><path d="M 558.22 348.89 A 34.89 34.89 0 0 1  593.11 314 L 593.11 348.89L558.22 348.89" fill="#2B2D42"/><rect x="593.11" y="314" width="34.89" height="34.89" fill="#EDF2F4"/><path d="M 593.11 314 A 34.89 34.89 0 0 1 628 348.89 L 593.11 348.89L593.11 314" fill="#EDF2F4"/><rect x="628" y="279.1111111111111" width="69.77777777777777" height="69.77777777777777" fill="#ffffff"/><rect x="628" y="279.11" width="34.89" height="34.89" fill="#EDF2F4"/><path d="M 628 314 A 34.89 34.89 0 0 1 662.89 279.11 L 662.89 287.83250000000004 A 26.1675 26.1675 0 0 0 636.7225 314" fill="#8D99AE"/><rect x="662.89" y="279.11" width="34.89" height="34.89" fill="#2B2D42"/><path d="M 662.89 279.11 A 34.89 34.89 0 0 1 697.78 314 L 689.0575 314 A 26.1675 26.1675 0 0 0 662.89 287.83250000000004" fill="#2B2D42"/><rect x="628" y="314" width="34.89" height="34.89" fill="#2B2D42"/><path d="M 628 314 A 34.89 34.89 0 0 0 662.89 348.89 L 662.89 340.1675 A 26.1675 26.1675 0 0 1 636.7225 314" fill="#2B2D42"/><rect x="662.89" y="314" width="34.89" height="34.89" fill="#2B2D42"/><path d="M 662.89 348.89 A 34.89 34.89 0 0 0 697.78 314 L 689.0575 314 A 26.1675 26.1675 0 0 1 662.89 340.1675" fill="#EDF2F4"/><rect x="697.7777777777777" y="279.1111111111111" width="69.77777777777777" height="69.77777777777777" fill="#ffffff"/><rect x="697.78" y="279.11" width="34.89" height="34.89" fill="#EDF2F4"/><path d="M 697.78 314 A 34.89 34.89 0 0 1  732.67 279.11 L 732.67 314L697.78 314" fill="#2B2D42"/><rect x="732.67" y="279.11" width="34.89" height="34.89" fill="#2B2D42"/><path d="M 732.67 279.11 A 34.89 34.89 0 0 1 767.56 314 L 732.67 314L732.67 279.11" fill="#EDF2F4"/><rect x="697.78" y="314" width="34.89" height="34.89" fill="#2B2D42"/><path d="M 697.78 314 A 34.89 34.89 0 0 0 732.67 348.89 L 732.67 314L697.78 314" fill="#EDF2F4"/><rect x="732.67" y="314" width="34.89" height="34.89" fill="#2B2D42"/><path d="M 732.67 348.89 A 34.89 34.89 0 0 0 767.56 314 L 732.67 314L732.67 348.89" fill="#EDF2F4"/><rect x="767.56" y="279.11" width="69.78" height="69.78" fill="#8D99AE"/><path d="M 767.56 279.11 A 69.78 69.78 0 0 1  837.3399999999999 348.89 L 767.56 279.11 A 69.78 69.78 0 0 0 837.3399999999999 348.89" fill="#2B2D42"/><rect x="837.33" y="279.11" width="69.78" height="69.78" fill="#2B2D42"/><rect x="837.33" y="279.11" width="69.78" height="69.78" fill="#2B2D42"/><rect x="907.11" y="279.11" width="69.78" height="69.78" fill="#EDF2F4"/><path d="M 907.11 348.89 A 69.78 69.78 0 0 1  976.89 279.11 L 976.89 348.89L907.11 348.89" fill="#EDF2F4"/><rect x="0" y="348.88888888888886" width="69.77777777777777" height="69.77777777777777" fill="#ffffff"/><rect x="0" y="348.89" width="34.89" height="34.89" fill="#8D99AE"/><path d="M 0 383.78 A 34.89 34.89 0 0 1  34.89 348.89 L 34.89 383.78L0 383.78" fill="#EDF2F4"/><rect x="34.89" y="348.89" width="34.89" height="34.89" fill="#EDF2F4"/><path d="M 34.89 348.89 A 34.89 34.89 0 0 1 69.78 383.78 L 34.89 383.78L34.89 348.89" fill="#EDF2F4"/><rect x="0" y="383.78" width="34.89" height="34.89" fill="#EDF2F4"/><path d="M 0 383.78 A 34.89 34.89 0 0 0 34.89 418.66999999999996 L 34.89 383.78L0 383.78" fill="#8D99AE"/><rect x="34.89" y="383.78" width="34.89" height="34.89" fill="#EDF2F4"/><path d="M 34.89 418.66999999999996 A 34.89 34.89 0 0 0 69.78 383.78 L 34.89 383.78L34.89 418.66999999999996" fill="#2B2D42"/><rect x="69.77777777777777" y="348.88888888888886" width="69.77777777777777" height="69.77777777777777" fill="#ffffff"/><rect x="69.78" y="348.89" width="34.89" height="34.89" fill="#8D99AE"/><polygon points="104.67,348.89 104.67,383.78 69.78,383.78" fill="#2B2D42"/><rect x="104.67" y="348.89" width="34.89" height="34.89" fill="#EDF2F4"/><polygon points="104.67,348.89 139.56,348.89 104.67,383.78" fill="#EDF2F4"/><rect x="69.78" y="383.78" width="34.89" height="34.89" fill="#2B2D42"/><polygon points="69.78,383.78 104.67,383.78 104.67,418.66999999999996" fill="#EDF2F4"/><rect x="104.67" y="383.78" width="34.89" height="34.89" fill="#EDF2F4"/><polygon points="104.67,383.78 139.56,418.66999999999996 104.67,418.66999999999996" fill="#8D99AE"/><rect x="139.56" y="348.89" width="69.78" height="69.78" fill="#EDF2F4"/><rect x="139.56" y="348.89" width="69.78" height="69.78" fill="#8D99AE"/><rect x="209.33333333333331" y="348.88888888888886" width="69.77777777777777" height="69.77777777777777" fill="#ffffff"/><rect x="209.33" y="348.89" width="34.89" height="34.89" fill="#2B2D42"/><polygon points="244.22000000000003,348.89 244.22000000000003,383.78 209.33,383.78" fill="#2B2D42"/><rect x="244.22" y="348.89" width="34.89" height="34.89" fill="#2B2D42"/><polygon points="244.22,348.89 279.11,383.78 244.22,383.78" fill="#EDF2F4"/><rect x="209.33" y="383.78" width="34.89" height="34.89" fill="#8D99AE"/><polygon points="209.33,383.78 244.22000000000003,383.78 244.22000000000003,418.66999999999996" fill="#EDF2F4"/><rect x="244.22" y="383.78" width="34.89" height="34.89" fill="#2B2D42"/><polygon points="244.22,383.78 279.11,383.78 244.22,418.66999999999996" fill="#8D99AE"/><rect x="279.11" y="348.89" width="69.78" height="69.78" fill="#8D99AE"/><path d="M 279.11 418.66999999999996 A 69.78 69.78 0 0 1  348.89 348.89 L 279.11 418.66999999999996 A 69.78 69.78 0 0 0 348.89 348.89" fill="#8D99AE"/><rect x="348.89" y="348.89" width="69.78" height="69.78" fill="#EDF2F4"/><polygon points="348.89,348.89 418.66999999999996,418.66999999999996 348.89,418.66999999999996" fill="#8D99AE"/><rect x="418.66666666666663" y="348.88888888888886" width="69.77777777777777" height="69.77777777777777" fill="#ffffff"/><rect x="418.67" y="348.89" width="34.89" height="34.89" fill="#EDF2F4"/><path d="M 418.67 348.89 A 34.89 34.89 0 0 1 453.56 383.78 L 418.67 383.78L418.67 348.89" fill="#EDF2F4"/><rect x="453.56" y="348.89" width="34.89" height="34.89" fill="#EDF2F4"/><path d="M 453.56 383.78 A 34.89 34.89 0 0 1  488.45 348.89 L 488.45 383.78L453.56 383.78" fill="#EDF2F4"/><rect x="418.67" y="383.78" width="34.89" height="34.89" fill="#EDF2F4"/><path d="M 418.67 418.66999999999996 A 34.89 34.89 0 0 0 453.56 383.78 L 418.67 383.78L418.67 418.66999999999996" fill="#EDF2F4"/><rect x="453.56" y="383.78" width="34.89" height="34.89" fill="#8D99AE"/><path d="M 453.56 383.78 A 34.89 34.89 0 0 0 488.45 418.66999999999996 L 488.45 383.78L453.56 383.78" fill="#8D99AE"/><rect x="488.44" y="348.89" width="69.78" height="69.78" fill="#2B2D42"/><polygon points="558.22,348.89 558.22,418.66999999999996 488.44,418.66999999999996" fill="#8D99AE"/><rect x="558.2222222222222" y="348.88888888888886" width="69.77777777777777" height="69.77777777777777" fill="#ffffff"/><rect x="558.22" y="348.89" width="34.89" height="34.89" fill="#EDF2F4"/><path d="M 558.22 383.78 A 34.89 34.89 0 0 0 593.11 348.89 L 558.22 348.89L558.22 383.78" fill="#EDF2F4"/><rect x="593.11" y="348.89" width="34.89" height="34.89" fill="#8D99AE"/><path d="M 593.11 348.89 A 34.89 34.89 0 0 0 628 383.78 L 628 348.89L593.11 348.89" fill="#8D99AE"/><rect x="558.22" y="383.78" width="34.89" height="34.89" fill="#8D99AE"/><path d="M 558.22 383.78 A 34.89 34.89 0 0 1 593.11 418.66999999999996 L 558.22 418.66999999999996L558.22 383.78" fill="#8D99AE"/><rect x="593.11" y="383.78" width="34.89" height="34.89" fill="#EDF2F4"/><path d="M 593.11 418.66999999999996 A 34.89 34.89 0 0 1  628 383.78 L 628 418.66999999999996L593.11 418.66999999999996" fill="#EDF2F4"/><rect x="628" y="348.88888888888886" width="69.77777777777777" height="69.77777777777777" fill="#ffffff"/><rect x="628" y="348.89" width="34.89" height="34.89" fill="#EDF2F4"/><circle cx="645.445" cy="366.335" r="17.445" fill="#8D99AE"/><rect x="662.89" y="348.89" width="34.89" height="34.89" fill="#EDF2F4"/><rect x="662.89" y="348.89" width="34.89" height="34.89" fill="#2B2D42"/><rect x="628" y="383.78" width="34.89" height="34.89" fill="#8D99AE"/><circle cx="645.445" cy="401.22499999999997" r="17.445" fill="#8D99AE"/><rect x="662.89" y="383.78" width="34.89" height="34.89" fill="#EDF2F4"/><rect x="662.89" y="383.78" width="34.89" height="34.89" fill="#8D99AE"/><rect x="697.7777777777777" y="348.88888888888886" width="69.77777777777777" height="69.77777777777777" fill="#ffffff"/><rect x="697.78" y="348.89" width="34.89" height="34.89" fill="#2B2D42"/><path d="M 697.78 348.89 A 34.89 34.89 0 0 0 732.67 383.78 L 732.67 348.89L697.78 348.89" fill="#EDF2F4"/><rect x="732.67" y="348.89" width="34.89" height="34.89" fill="#2B2D42"/><path d="M 732.67 383.78 A 34.89 34.89 0 0 0 767.56 348.89 L 732.67 348.89L732.67 383.78" fill="#2B2D42"/><rect x="697.78" y="383.78" width="34.89" height="34.89" fill="#8D99AE"/><path d="M 697.78 418.66999999999996 A 34.89 34.89 0 0 1  732.67 383.78 L 732.67 418.66999999999996L697.78 418.66999999999996" fill="#2B2D42"/><rect x="732.67" y="383.78" width="34.89" height="34.89" fill="#EDF2F4"/><path d="M 732.67 383.78 A 34.89 34.89 0 0 1 767.56 418.66999999999996 L 732.67 418.66999999999996L732.67 383.78" fill="#2B2D42"/><rect x="767.56" y="348.89" width="69.78" height="69.78" fill="#8D99AE"/><rect x="767.56" y="348.89" width="69.78" height="69.78" fill="#8D99AE"/><rect x="837.33" y="348.89" width="69.78" height="69.78" fill="#EDF2F4"/><path d="M 837.33 348.89 A 69.78 69.78 0 0 1  907.11 418.66999999999996 L 837.33 348.89 A 69.78 69.78 0 0 0 907.11 418.66999999999996" fill="#EDF2F4"/><rect x="907.1111111111111" y="348.88888888888886" width="69.77777777777777" height="69.77777777777777" fill="#ffffff"/><rect x="907.11" y="348.89" width="34.89" height="34.89" fill="#2B2D42"/><path d="M 907.11 348.89 A 34.89 34.89 0 0 1 942 383.78 L 907.11 383.78L907.11 348.89" fill="#EDF2F4"/><rect x="942" y="348.89" width="34.89" height="34.89" fill="#8D99AE"/><path d="M 942 383.78 A 34.89 34.89 0 0 1  976.89 348.89 L 976.89 383.78L942 383.78" fill="#EDF2F4"/><rect x="907.11" y="383.78" width="34.89" height="34.89" fill="#8D99AE"/><path d="M 907.11 418.66999999999996 A 34.89 34.89 0 0 0 942 383.78 L 907.11 383.78L907.11 418.66999999999996" fill="#8D99AE"/><rect x="942" y="383.78" width="34.89" height="34.89" fill="#EDF2F4"/><path d="M 942 383.78 A 34.89 34.89 0 0 0 976.89 418.66999999999996 L 976.89 383.78L942 383.78" fill="#EDF2F4"/><rect x="0" y="418.66666666666663" width="69.77777777777777" height="69.77777777777777" fill="#ffffff"/><rect x="0" y="418.67" width="34.89" height="34.89" fill="#EDF2F4"/><polygon points="34.89,418.67 34.89,453.56 0,453.56" fill="#8D99AE"/><rect x="34.89" y="418.67" width="34.89" height="34.89" fill="#8D99AE"/><polygon points="34.89,418.67 69.78,418.67 34.89,453.56" fill="#8D99AE"/><rect x="0" y="453.56" width="34.89" height="34.89" fill="#EDF2F4"/><polygon points="0,453.56 34.89,453.56 34.89,488.45" fill="#EDF2F4"/><rect x="34.89" y="453.56" width="34.89" height="34.89" fill="#2B2D42"/><polygon points="34.89,453.56 69.78,488.45 34.89,488.45" fill="#8D99AE"/><rect x="69.78" y="418.67" width="69.78" height="69.78" fill="#2B2D42"/><rect x="69.78" y="418.67" width="69.78" height="69.78" fill="#8D99AE"/><rect x="139.55555555555554" y="418.66666666666663" width="69.77777777777777" height="69.77777777777777" fill="#ffffff"/><rect x="139.56" y="418.67" width="34.89" height="34.89" fill="#EDF2F4"/><polygon points="174.45,418.67 174.45,453.56 139.56,453.56" fill="#8D99AE"/><rect x="174.44" y="418.67" width="34.89" height="34.89" fill="#8D99AE"/><polygon points="174.44,418.67 209.32999999999998,453.56 174.44,453.56" fill="#EDF2F4"/><rect x="139.56" y="453.56" width="34.89" height="34.89" fill="#8D99AE"/><polygon points="139.56,453.56 174.45,453.56 174.45,488.45" fill="#2B2D42"/><rect x="174.44" y="453.56" width="34.89" height="34.89" fill="#2B2D42"/><polygon points="174.44,453.56 209.32999999999998,453.56 174.44,488.45" fill="#8D99AE"/><rect x="209.33333333333331" y="418.66666666666663" width="69.77777777777777" height="69.77777777777777" fill="#ffffff"/><rect x="209.33" y="418.67" width="34.89" height="34.89" fill="#2B2D42"/><path d="M 209.33 453.56 A 34.89 34.89 0 0 1 244.22000000000003 418.67 L 244.22000000000003 427.39250000000004 A 26.1675 26.1675 0 0 0 218.0525 453.56" fill="#8D99AE"/><rect x="244.22" y="418.67" width="34.89" height="34.89" fill="#EDF2F4"/><path d="M 244.22 418.67 A 34.89 34.89 0 0 1 279.11 453.56 L 270.3875 453.56 A 26.1675 26.1675 0 0 0 244.22 427.39250000000004" fill="#2B2D42"/><rect x="209.33" y="453.56" width="34.89" height="34.89" fill="#EDF2F4"/><path d="M 209.33 453.56 A 34.89 34.89 0 0 0 244.22000000000003 488.45 L 244.22000000000003 479.7275 A 26.1675 26.1675 0 0 1 218.0525 453.56" fill="#8D99AE"/><rect x="244.22" y="453.56" width="34.89" height="34.89" fill="#8D99AE"/><path d="M 244.22 488.45 A 34.89 34.89 0 0 0 279.11 453.56 L 270.3875 453.56 A 26.1675 26.1675 0 0 1 244.22 479.7275" fill="#EDF2F4"/><rect x="279.1111111111111" y="418.66666666666663" width="69.77777777777777" height="69.77777777777777" fill="#ffffff"/><rect x="279.11" y="418.67" width="34.89" height="34.89" fill="#EDF2F4"/><polygon points="314,418.67 314,453.56 279.11,453.56" fill="#8D99AE"/><rect x="314" y="418.67" width="34.89" height="34.89" fill="#EDF2F4"/><polygon points="314,418.67 348.89,453.56 314,453.56" fill="#EDF2F4"/><rect x="279.11" y="453.56" width="34.89" height="34.89" fill="#8D99AE"/><polygon points="279.11,453.56 314,453.56 279.11,488.45" fill="#8D99AE"/><rect x="314" y="453.56" width="34.89" height="34.89" fill="#EDF2F4"/><polygon points="314,453.56 348.89,453.56 348.89,488.45" fill="#8D99AE"/><rect x="348.89" y="418.67" width="69.78" height="69.78" fill="#EDF2F4"/><polygon points="418.66999999999996,418.67 418.66999999999996,488.45000000000005 348.89,488.45000000000005" fill="#EDF2F4"/><rect x="418.66666666666663" y="418.66666666666663" width="69.77777777777777" height="69.77777777777777" fill="#ffffff"/><rect x="418.67" y="418.67" width="34.89" height="34.89" fill="#8D99AE"/><path d="M 418.67 418.67 A 34.89 34.89 0 0 1 453.56 453.56 L 418.67 453.56L418.67 418.67" fill="#EDF2F4"/><rect x="453.56" y="418.67" width="34.89" height="34.89" fill="#8D99AE"/><path d="M 453.56 453.56 A 34.89 34.89 0 0 1  488.45 418.67 L 488.45 453.56L453.56 453.56" fill="#EDF2F4"/><rect x="418.67" y="453.56" width="34.89" height="34.89" fill="#2B2D42"/><path d="M 418.67 488.45 A 34.89 34.89 0 0 0 453.56 453.56 L 418.67 453.56L418.67 488.45" fill="#EDF2F4"/><rect x="453.56" y="453.56" width="34.89" height="34.89" fill="#2B2D42"/><path d="M 453.56 453.56 A 34.89 34.89 0 0 0 488.45 488.45 L 488.45 453.56L453.56 453.56" fill="#EDF2F4"/><rect x="488.44" y="418.67" width="69.78" height="69.78" fill="#2B2D42"/><polygon points="558.22,418.67 558.22,488.45000000000005 488.44,488.45000000000005" fill="#8D99AE"/><rect x="558.22" y="418.67" width="69.78" height="69.78" fill="#8D99AE"/><path d="M 558.22 418.67 A 69.78 69.78 0 0 1  628 488.45000000000005 L 558.22 418.67 A 69.78 69.78 0 0 0 628 488.45000000000005" fill="#EDF2F4"/><rect x="628" y="418.66666666666663" width="69.77777777777777" height="69.77777777777777" fill="#ffffff"/><rect x="628" y="418.67" width="34.89" height="34.89" fill="#8D99AE"/><path d="M 628 418.67 A 34.89 34.89 0 0 0 662.89 453.56 L 662.89 418.67L628 418.67" fill="#EDF2F4"/><rect x="662.89" y="418.67" width="34.89" height="34.89" fill="#8D99AE"/><path d="M 662.89 453.56 A 34.89 34.89 0 0 0 697.78 418.67 L 662.89 418.67L662.89 453.56" fill="#EDF2F4"/><rect x="628" y="453.56" width="34.89" height="34.89" fill="#2B2D42"/><path d="M 628 488.45 A 34.89 34.89 0 0 1  662.89 453.56 L 662.89 488.45L628 488.45" fill="#8D99AE"/><rect x="662.89" y="453.56" width="34.89" height="34.89" fill="#8D99AE"/><path d="M 662.89 453.56 A 34.89 34.89 0 0 1 697.78 488.45 L 662.89 488.45L662.89 453.56" fill="#8D99AE"/><rect x="697.78" y="418.67" width="69.78" height="69.78" fill="#8D99AE"/><rect x="697.78" y="418.67" width="69.78" height="69.78" fill="#8D99AE"/><rect x="767.5555555555554" y="418.66666666666663" width="69.77777777777777" height="69.77777777777777" fill="#ffffff"/><rect x="767.56" y="418.67" width="34.89" height="34.89" fill="#2B2D42"/><path d="M 767.56 453.56 A 34.89 34.89 0 0 0 802.4499999999999 418.67 L 767.56 418.67L767.56 453.56" fill="#EDF2F4"/><rect x="802.44" y="418.67" width="34.89" height="34.89" fill="#2B2D42"/><path d="M 802.44 418.67 A 34.89 34.89 0 0 0 837.33 453.56 L 837.33 418.67L802.44 418.67" fill="#8D99AE"/><rect x="767.56" y="453.56" width="34.89" height="34.89" fill="#8D99AE"/><path d="M 767.56 453.56 A 34.89 34.89 0 0 1 802.4499999999999 488.45 L 767.56 488.45L767.56 453.56" fill="#2B2D42"/><rect x="802.44" y="453.56" width="34.89" height="34.89" fill="#8D99AE"/><path d="M 802.44 488.45 A 34.89 34.89 0 0 1  837.33 453.56 L 837.33 488.45L802.44 488.45" fill="#2B2D42"/><rect x="837.33" y="418.67" width="69.78" height="69.78" fill="#EDF2F4"/><path d="M 837.33 488.45000000000005 A 69.78 69.78 0 0 0 907.11 418.67 L 837.33 418.67L837.33 488.45000000000005" fill="#2B2D42"/><rect x="907.11" y="418.67" width="69.78" height="69.78" fill="#EDF2F4"/><polygon points="907.11,418.67 976.89,488.45000000000005 907.11,488.45000000000005" fill="#EDF2F4"/><rect x="0" y="488.4444444444444" width="69.77777777777777" height="69.77777777777777" fill="#ffffff"/><rect x="0" y="488.44" width="34.89" height="34.89" fill="#2B2D42"/><polygon points="34.89,488.44 34.89,523.33 0,523.33" fill="#8D99AE"/><rect x="34.89" y="488.44" width="34.89" height="34.89" fill="#EDF2F4"/><polygon points="34.89,488.44 69.78,523.33 34.89,523.33" fill="#EDF2F4"/><rect x="0" y="523.33" width="34.89" height="34.89" fill="#2B2D42"/><polygon points="0,523.33 34.89,523.33 0,558.22" fill="#2B2D42"/><rect x="34.89" y="523.33" width="34.89" height="34.89" fill="#8D99AE"/><polygon points="34.89,523.33 69.78,523.33 69.78,558.22" fill="#2B2D42"/><rect x="69.77777777777777" y="488.4444444444444" width="69.77777777777777" height="69.77777777777777" fill="#ffffff"/><rect x="69.78" y="488.44" width="34.89" height="34.89" fill="#EDF2F4"/><path d="M 69.78 488.44 A 34.89 34.89 0 0 1 104.67 523.33 L 69.78 523.33L69.78 488.44" fill="#2B2D42"/><rect x="104.67" y="488.44" width="34.89" height="34.89" fill="#EDF2F4"/><path d="M 104.67 523.33 A 34.89 34.89 0 0 1  139.56 488.44 L 139.56 523.33L104.67 523.33" fill="#8D99AE"/><rect x="69.78" y="523.33" width="34.89" height="34.89" fill="#2B2D42"/><path d="M 69.78 558.22 A 34.89 34.89 0 0 0 104.67 523.33 L 69.78 523.33L69.78 558.22" fill="#8D99AE"/><rect x="104.67" y="523.33" width="34.89" height="34.89" fill="#2B2D42"/><path d="M 104.67 523.33 A 34.89 34.89 0 0 0 139.56 558.22 L 139.56 523.33L104.67 523.33" fill="#EDF2F4"/><rect x="139.55555555555554" y="488.4444444444444" width="69.77777777777777" height="69.77777777777777" fill="#ffffff"/><rect x="139.56" y="488.44" width="34.89" height="34.89" fill="#8D99AE"/><path d="M 139.56 488.44 A 34.89 34.89 0 0 1 174.45 523.33 L 139.56 523.33L139.56 488.44" fill="#2B2D42"/><rect x="174.44" y="488.44" width="34.89" height="34.89" fill="#8D99AE"/><path d="M 174.44 523.33 A 34.89 34.89 0 0 1  209.32999999999998 488.44 L 209.32999999999998 523.33L174.44 523.33" fill="#2B2D42"/><rect x="139.56" y="523.33" width="34.89" height="34.89" fill="#2B2D42"/><path d="M 139.56 558.22 A 34.89 34.89 0 0 0 174.45 523.33 L 139.56 523.33L139.56 558.22" fill="#8D99AE"/><rect x="174.44" y="523.33" width="34.89" height="34.89" fill="#2B2D42"/><path d="M 174.44 523.33 A 34.89 34.89 0 0 0 209.32999999999998 558.22 L 209.32999999999998 523.33L174.44 523.33" fill="#8D99AE"/><rect x="209.33333333333331" y="488.4444444444444" width="69.77777777777777" height="69.77777777777777" fill="#ffffff"/><rect x="209.33" y="488.44" width="34.89" height="34.89" fill="#8D99AE"/><polygon points="244.22000000000003,488.44 244.22000000000003,523.33 209.33,523.33" fill="#2B2D42"/><rect x="244.22" y="488.44" width="34.89" height="34.89" fill="#8D99AE"/><polygon points="244.22,488.44 279.11,523.33 244.22,523.33" fill="#2B2D42"/><rect x="209.33" y="523.33" width="34.89" height="34.89" fill="#EDF2F4"/><polygon points="209.33,523.33 244.22000000000003,523.33 244.22000000000003,558.22" fill="#EDF2F4"/><rect x="244.22" y="523.33" width="34.89" height="34.89" fill="#2B2D42"/><polygon points="244.22,523.33 279.11,523.33 244.22,558.22" fill="#2B2D42"/><rect x="279.11" y="488.44" width="69.78" height="69.78" fill="#2B2D42"/><path d="M 279.11 558.22 A 69.78 69.78 0 0 1  348.89 488.44 L 279.11 558.22 A 69.78 69.78 0 0 0 348.89 488.44" fill="#2B2D42"/><rect x="348.89" y="488.44" width="69.78" height="69.78" fill="#EDF2F4"/><polygon points="348.89,488.44 418.66999999999996,488.44 418.66999999999996,558.22" fill="#2B2D42"/><rect x="418.67" y="488.44" width="69.78" height="69.78" fill="#2B2D42"/><rect x="418.67" y="488.44" width="69.78" height="69.78" fill="#8D99AE"/><rect x="488.44" y="488.44" width="69.78" height="69.78" fill="#2B2D42"/><path d="M 488.44 488.44 A 69.78 69.78 0 0 1 558.22 558.22 L 488.44 558.22L488.44 488.44" fill="#2B2D42"/><rect x="558.2222222222222" y="488.4444444444444" width="69.77777777777777" height="69.77777777777777" fill="#ffffff"/><rect x="558.22" y="488.44" width="34.89" height="34.89" fill="#EDF2F4"/><path d="M 558.22 523.33 A 34.89 34.89 0 0 1 593.11 488.44 L 593.11 497.1625 A 26.1675 26.1675 0 0 0 566.9425 523.33" fill="#EDF2F4"/><rect x="593.11" y="488.44" width="34.89" height="34.89" fill="#8D99AE"/><path d="M 593.11 488.44 A 34.89 34.89 0 0 1 628 523.33 L 619.2775 523.33 A 26.1675 26.1675 0 0 0 593.11 497.1625" fill="#2B2D42"/><rect x="558.22" y="523.33" width="34.89" height="34.89" fill="#EDF2F4"/><path d="M 558.22 523.33 A 34.89 34.89 0 0 0 593.11 558.22 L 593.11 549.4975000000001 A 26.1675 26.1675 0 0 1 566.9425 523.33" fill="#2B2D42"/><rect x="593.11" y="523.33" width="34.89" height="34.89" fill="#2B2D42"/><path d="M 593.11 558.22 A 34.89 34.89 0 0 0 628 523.33 L 619.2775 523.33 A 26.1675 26.1675 0 0 1 593.11 549.4975000000001" fill="#EDF2F4"/><rect x="628" y="488.4444444444444" width="69.77777777777777" height="69.77777777777777" fill="#ffffff"/><rect x="628" y="488.44" width="34.89" height="34.89" fill="#2B2D42"/><polygon points="662.89,488.44 662.89,523.33 628,523.33" fill="#8D99AE"/><rect x="662.89" y="488.44" width="34.89" height="34.89" fill="#2B2D42"/><polygon points="662.89,488.44 697.78,523.33 662.89,523.33" fill="#2B2D42"/><rect x="628" y="523.33" width="34.89" height="34.89" fill="#2B2D42"/><polygon points="628,523.33 662.89,523.33 662.89,558.22" fill="#EDF2F4"/><rect x="662.89" y="523.33" width="34.89" height="34.89" fill="#2B2D42"/><polygon points="662.89,523.33 697.78,523.33 662.89,558.22" fill="#2B2D42"/><rect x="697.7777777777777" y="488.4444444444444" width="69.77777777777777" height="69.77777777777777" fill="#ffffff"/><rect x="697.78" y="488.44" width="34.89" height="34.89" fill="#EDF2F4"/><path d="M 697.78 488.44 A 34.89 34.89 0 0 1 732.67 523.33 L 697.78 523.33L697.78 488.44" fill="#8D99AE"/><rect x="732.67" y="488.44" width="34.89" height="34.89" fill="#EDF2F4"/><path d="M 732.67 523.33 A 34.89 34.89 0 0 1  767.56 488.44 L 767.56 523.33L732.67 523.33" fill="#2B2D42"/><rect x="697.78" y="523.33" width="34.89" height="34.89" fill="#8D99AE"/><path d="M 697.78 558.22 A 34.89 34.89 0 0 0 732.67 523.33 L 697.78 523.33L697.78 558.22" fill="#8D99AE"/><rect x="732.67" y="523.33" width="34.89" height="34.89" fill="#8D99AE"/><path d="M 732.67 523.33 A 34.89 34.89 0 0 0 767.56 558.22 L 767.56 523.33L732.67 523.33" fill="#EDF2F4"/><rect x="767.56" y="488.44" width="69.78" height="69.78" fill="#8D99AE"/><path d="M 767.56 558.22 A 69.78 69.78 0 0 1  837.3399999999999 488.44 L 767.56 558.22 A 69.78 69.78 0 0 0 837.3399999999999 488.44" fill="#2B2D42"/><rect x="837.3333333333333" y="488.4444444444444" width="69.77777777777777" height="69.77777777777777" fill="#ffffff"/><rect x="837.33" y="488.44" width="34.89" height="34.89" fill="#2B2D42"/><polygon points="872.22,488.44 872.22,523.33 837.33,523.33" fill="#2B2D42"/><rect x="872.22" y="488.44" width="34.89" height="34.89" fill="#EDF2F4"/><polygon points="872.22,488.44 907.11,523.33 872.22,523.33" fill="#2B2D42"/><rect x="837.33" y="523.33" width="34.89" height="34.89" fill="#8D99AE"/><polygon points="837.33,523.33 872.22,523.33 837.33,558.22" fill="#2B2D42"/><rect x="872.22" y="523.33" width="34.89" height="34.89" fill="#EDF2F4"/><polygon points="872.22,523.33 907.11,523.33 907.11,558.22" fill="#EDF2F4"/><rect x="907.1111111111111" y="488.4444444444444" width="69.77777777777777" height="69.77777777777777" fill="#ffffff"/><rect x="907.11" y="488.44" width="34.89" height="34.89" fill="#8D99AE"/><polygon points="942,488.44 942,523.33 907.11,523.33" fill="#2B2D42"/><rect x="942" y="488.44" width="34.89" height="34.89" fill="#EDF2F4"/><polygon points="942,488.44 976.89,488.44 942,523.33" fill="#8D99AE"/><rect x="907.11" y="523.33" width="34.89" height="34.89" fill="#8D99AE"/><polygon points="907.11,523.33 942,523.33 942,558.22" fill="#2B2D42"/><rect x="942" y="523.33" width="34.89" height="34.89" fill="#8D99AE"/><polygon points="942,523.33 976.89,558.22 942,558.22" fill="#EDF2F4"/><rect x="0" y="558.22" width="69.78" height="69.78" fill="#2B2D42"/><path d="M 0 558.22 A 69.78 69.78 0 0 0 69.78 628 L 69.78 558.22L0 558.22" fill="#2B2D42"/><rect x="69.78" y="558.22" width="69.78" height="69.78" fill="#2B2D42"/><polygon points="69.78,558.22 139.56,558.22 139.56,628" fill="#8D99AE"/><rect x="139.56" y="558.22" width="69.78" height="69.78" fill="#EDF2F4"/><polygon points="139.56,558.22 209.34,558.22 209.34,628" fill="#EDF2F4"/><rect x="209.33333333333331" y="558.2222222222222" width="69.77777777777777" height="69.77777777777777" fill="#ffffff"/><rect x="209.33" y="558.22" width="34.89" height="34.89" fill="#8D99AE"/><polygon points="244.22000000000003,558.22 244.22000000000003,593.11 209.33,593.11" fill="#8D99AE"/><rect x="244.22" y="558.22" width="34.89" height="34.89" fill="#8D99AE"/><polygon points="244.22,558.22 279.11,593.11 244.22,593.11" fill="#2B2D42"/><rect x="209.33" y="593.11" width="34.89" height="34.89" fill="#8D99AE"/><polygon points="209.33,593.11 244.22000000000003,593.11 244.22000000000003,628" fill="#2B2D42"/><rect x="244.22" y="593.11" width="34.89" height="34.89" fill="#2B2D42"/><polygon points="244.22,593.11 279.11,593.11 244.22,628" fill="#EDF2F4"/><rect x="279.11" y="558.22" width="69.78" height="69.78" fill="#2B2D42"/><path d="M 279.11 558.22 A 69.78 69.78 0 0 1 348.89 628 L 279.11 628L279.11 558.22" fill="#8D99AE"/><rect x="348.88888888888886" y="558.2222222222222" width="69.77777777777777" height="69.77777777777777" fill="#ffffff"/><rect x="348.89" y="558.22" width="34.89" height="34.89" fill="#EDF2F4"/><polygon points="383.78,558.22 383.78,593.11 348.89,593.11" fill="#EDF2F4"/><rect x="383.78" y="558.22" width="34.89" height="34.89" fill="#2B2D42"/><polygon points="383.78,558.22 418.66999999999996,558.22 383.78,593.11" fill="#EDF2F4"/><rect x="348.89" y="593.11" width="34.89" height="34.89" fill="#EDF2F4"/><polygon points="348.89,593.11 383.78,593.11 383.78,628" fill="#EDF2F4"/><rect x="383.78" y="593.11" width="34.89" height="34.89" fill="#2B2D42"/><polygon points="383.78,593.11 418.66999999999996,628 383.78,628" fill="#8D99AE"/><rect x="418.66666666666663" y="558.2222222222222" width="69.77777777777777" height="69.77777777777777" fill="#ffffff"/><rect x="418.67" y="558.22" width="34.89" height="34.89" fill="#2B2D42"/><polygon points="453.56,558.22 453.56,593.11 418.67,593.11" fill="#8D99AE"/><rect x="453.56" y="558.22" width="34.89" height="34.89" fill="#2B2D42"/><polygon points="453.56,558.22 488.45,593.11 453.56,593.11" fill="#EDF2F4"/><rect x="418.67" y="593.11" width="34.89" height="34.89" fill="#EDF2F4"/><polygon points="418.67,593.11 453.56,593.11 453.56,628" fill="#8D99AE"/><rect x="453.56" y="593.11" width="34.89" height="34.89" fill="#EDF2F4"/><polygon points="453.56,593.11 488.45,593.11 453.56,628" fill="#2B2D42"/><rect x="488.44" y="558.22" width="69.78" height="69.78" fill="#8D99AE"/><rect x="488.44" y="558.22" width="69.78" height="69.78" fill="#EDF2F4"/><rect x="558.2222222222222" y="558.2222222222222" width="69.77777777777777" height="69.77777777777777" fill="#ffffff"/><rect x="558.22" y="558.22" width="34.89" height="34.89" fill="#2B2D42"/><polygon points="593.11,558.22 593.11,593.11 558.22,593.11" fill="#2B2D42"/><rect x="593.11" y="558.22" width="34.89" height="34.89" fill="#8D99AE"/><polygon points="593.11,558.22 628,593.11 593.11,593.11" fill="#2B2D42"/><rect x="558.22" y="593.11" width="34.89" height="34.89" fill="#2B2D42"/><polygon points="558.22,593.11 593.11,593.11 558.22,628" fill="#8D99AE"/><rect x="593.11" y="593.11" width="34.89" height="34.89" fill="#EDF2F4"/><polygon points="593.11,593.11 628,593.11 628,628" fill="#EDF2F4"/><rect x="628" y="558.22" width="69.78" height="69.78" fill="#EDF2F4"/><path d="M 628 628 A 69.78 69.78 0 0 1  697.78 558.22 L 697.78 628L628 628" fill="#EDF2F4"/><rect x="697.7777777777777" y="558.2222222222222" width="69.77777777777777" height="69.77777777777777" fill="#ffffff"/><rect x="697.78" y="558.22" width="34.89" height="34.89" fill="#EDF2F4"/><polygon points="732.67,558.22 732.67,593.11 697.78,593.11" fill="#EDF2F4"/><rect x="732.67" y="558.22" width="34.89" height="34.89" fill="#2B2D42"/><polygon points="732.67,558.22 767.56,593.11 732.67,593.11" fill="#8D99AE"/><rect x="697.78" y="593.11" width="34.89" height="34.89" fill="#EDF2F4"/><polygon points="697.78,593.11 732.67,593.11 697.78,628" fill="#EDF2F4"/><rect x="732.67" y="593.11" width="34.89" height="34.89" fill="#8D99AE"/><polygon points="732.67,593.11 767.56,593.11 767.56,628" fill="#EDF2F4"/><rect x="767.5555555555554" y="558.2222222222222" width="69.77777777777777" height="69.77777777777777" fill="#ffffff"/><rect x="767.56" y="558.22" width="34.89" height="34.89" fill="#8D99AE"/><polygon points="802.4499999999999,558.22 802.4499999999999,593.11 767.56,593.11" fill="#EDF2F4"/><rect x="802.44" y="558.22" width="34.89" height="34.89" fill="#2B2D42"/><polygon points="802.44,558.22 837.33,593.11 802.44,593.11" fill="#2B2D42"/><rect x="767.56" y="593.11" width="34.89" height="34.89" fill="#EDF2F4"/><polygon points="767.56,593.11 802.4499999999999,593.11 802.4499999999999,628" fill="#2B2D42"/><rect x="802.44" y="593.11" width="34.89" height="34.89" fill="#EDF2F4"/><polygon points="802.44,593.11 837.33,593.11 802.44,628" fill="#EDF2F4"/><rect x="837.3333333333333" y="558.2222222222222" width="69.77777777777777" height="69.77777777777777" fill="#ffffff"/><rect x="837.33" y="558.22" width="34.89" height="34.89" fill="#2B2D42"/><circle cx="854.7750000000001" cy="575.6650000000001" r="17.445" fill="#EDF2F4"/><rect x="872.22" y="558.22" width="34.89" height="34.89" fill="#8D99AE"/><rect x="872.22" y="558.22" width="34.89" height="34.89" fill="#2B2D42"/><rect x="837.33" y="593.11" width="34.89" height="34.89" fill="#2B2D42"/><circle cx="854.7750000000001" cy="610.5550000000001" r="17.445" fill="#EDF2F4"/><rect x="872.22" y="593.11" width="34.89" height="34.89" fill="#8D99AE"/><rect x="872.22" y="593.11" width="34.89" height="34.89" fill="#2B2D42"/><rect x="907.1111111111111" y="558.2222222222222" width="69.77777777777777" height="69.77777777777777" fill="#ffffff"/><rect x="907.11" y="558.22" width="34.89" height="34.89" fill="#8D99AE"/><path d="M 907.11 593.11 A 34.89 34.89 0 0 1  942 558.22 L 942 593.11L907.11 593.11" fill="#EDF2F4"/><rect x="942" y="558.22" width="34.89" height="34.89" fill="#EDF2F4"/><path d="M 942 558.22 A 34.89 34.89 0 0 1 976.89 593.11 L 942 593.11L942 558.22" fill="#EDF2F4"/><rect x="907.11" y="593.11" width="34.89" height="34.89" fill="#8D99AE"/><path d="M 907.11 593.11 A 34.89 34.89 0 0 0 942 628 L 942 593.11L907.11 593.11" fill="#EDF2F4"/><rect x="942" y="593.11" width="34.89" height="34.89" fill="#8D99AE"/><path d="M 942 628 A 34.89 34.89 0 0 0 976.89 593.11 L 942 593.11L942 628" fill="#2B2D42"/></g></svg>